<svg width="319" height="237" viewBox="0 0 319 237" fill="none" xmlns="http://www.w3.org/2000/svg">
<path fill-rule="evenodd" clip-rule="evenodd" d="M176.015 194.03C166.283 200.965 154.376 205.044 141.516 205.044C108.646 205.044 82 178.395 82 145.522C82 112.649 108.646 86 141.516 86C174.386 86 201.032 112.649 201.032 145.522C201.032 158.383 196.953 170.292 190.019 180.025L229.123 219.133C232.975 222.986 232.943 229.15 229.121 232.973L228.957 233.137C225.145 236.949 218.94 236.959 215.119 233.138L176.015 194.03ZM141.516 191.039C166.652 191.039 187.028 170.66 187.028 145.522C187.028 120.384 166.652 100.005 141.516 100.005C116.38 100.005 96.0038 120.384 96.0038 145.522C96.0038 170.66 116.38 191.039 141.516 191.039Z" fill="#EEEEEE"/>
<path d="M180.019 180.025L179.204 179.444L178.713 180.134L179.312 180.732L180.019 180.025ZM219.123 219.133L218.416 219.84L219.123 219.133ZM219.121 232.973L218.414 232.265L218.414 232.266L219.121 232.973ZM218.957 233.137L219.665 233.844L219.665 233.844L218.957 233.137ZM205.119 233.138L205.826 232.431L205.119 233.138ZM165.435 193.216C155.867 200.034 144.161 204.044 131.516 204.044V206.044C144.591 206.044 156.7 201.896 166.595 194.844L165.435 193.216ZM131.516 204.044C99.1986 204.044 73 177.843 73 145.522H71C71 178.947 98.0938 206.044 131.516 206.044V204.044ZM73 145.522C73 113.201 99.1986 87 131.516 87V85C98.0938 85 71 112.097 71 145.522H73ZM131.516 87C163.833 87 190.032 113.201 190.032 145.522H192.032C192.032 112.097 164.938 85 131.516 85V87ZM190.032 145.522C190.032 158.169 186.022 169.876 179.204 179.444L180.833 180.605C187.884 170.708 192.032 158.598 192.032 145.522H190.032ZM179.312 180.732L218.416 219.84L219.83 218.426L180.726 179.318L179.312 180.732ZM218.416 219.84C221.875 223.3 221.848 228.832 218.414 232.265L219.829 233.68C224.039 229.469 224.075 222.671 219.83 218.426L218.416 219.84ZM218.414 232.266L218.25 232.43L219.665 233.844L219.829 233.68L218.414 232.266ZM218.25 232.43C214.828 235.852 209.256 235.861 205.826 232.431L204.412 233.845C208.624 238.058 215.463 238.046 219.665 233.844L218.25 232.43ZM205.826 232.431L166.722 193.323L165.308 194.737L204.412 233.845L205.826 232.431ZM131.516 192.039C157.204 192.039 178.028 171.213 178.028 145.522H176.028C176.028 170.108 156.099 190.039 131.516 190.039V192.039ZM178.028 145.522C178.028 119.832 157.204 99.0052 131.516 99.0052V101.005C156.099 101.005 176.028 120.936 176.028 145.522H178.028ZM131.516 99.0052C105.828 99.0052 85.0038 119.832 85.0038 145.522H87.0038C87.0038 120.936 106.933 101.005 131.516 101.005V99.0052ZM85.0038 145.522C85.0038 171.213 105.828 192.039 131.516 192.039V190.039C106.933 190.039 87.0038 170.108 87.0038 145.522H85.0038Z" fill="#D9D9D9"/>
<path fill-rule="evenodd" clip-rule="evenodd" d="M308 183C313.523 183 318 178.523 318 173C318 167.477 313.523 163 308 163C302.477 163 298 167.477 298 173C298 178.523 302.477 183 308 183Z" stroke="#EEEEEE" stroke-width="2"/>
<path fill-rule="evenodd" clip-rule="evenodd" d="M6 133C8.76142 133 11 130.761 11 128C11 125.239 8.76142 123 6 123C3.23858 123 1 125.239 1 128C1 130.761 3.23858 133 6 133Z" stroke="#D9D9D9" stroke-width="2"/>
<path fill-rule="evenodd" clip-rule="evenodd" d="M44 189C45.6569 189 47 187.657 47 186C47 184.343 45.6569 183 44 183C42.3431 183 41 184.343 41 186C41 187.657 42.3431 189 44 189Z" fill="#EEEEEE"/>
<path fill-rule="evenodd" clip-rule="evenodd" d="M147 12C150.314 12 153 9.31371 153 6C153 2.68629 150.314 0 147 0C143.686 0 141 2.68629 141 6C141 9.31371 143.686 12 147 12Z" fill="#EEEEEE"/>
<path fill-rule="evenodd" clip-rule="evenodd" d="M60.1884 74.8117L53 72L60.1884 69.1884L63 62L65.8116 69.1884L73 72L65.8116 74.8117L63 82L60.1884 74.8117Z" stroke="#EEEEEE" stroke-width="2" stroke-linejoin="round"/>
<path fill-rule="evenodd" clip-rule="evenodd" d="M246.391 131.609L241 129.5L246.391 127.391L248.5 122L250.609 127.391L256 129.5L250.609 131.609L248.5 137L246.391 131.609Z" stroke="#D9D9D9" stroke-width="2" stroke-linejoin="round"/>
</svg>
